# 3ds Max Wavefront OBJ Exporter v0.97b - (c)2007 guruware
# File Created: 03.01.2016 03:41:54

mtllib 3d-model.mtl

#
# object Group_001
#

v  9.0604 29.2981 0.1525
v  -9.0604 29.2981 0.1525
v  -8.9741 29.2010 0.2472
v  8.9741 29.2010 0.2472
v  8.7616 1.5959 0.5678
v  8.7616 1.5959 0.4891
v  8.7616 28.9617 0.4891
v  8.7616 28.9617 0.5678
v  8.8633 1.4813 0.4891
v  8.9074 1.4317 0.3612
v  8.9074 29.1259 0.3612
v  8.8633 29.0763 0.4891
v  8.9741 1.3566 0.2472
v  9.0604 1.2595 0.1525
v  9.1622 1.1449 0.0816
v  9.1622 29.4126 0.0816
v  9.2747 1.0182 0.0376
v  9.2747 29.5393 0.0376
v  9.3927 0.8853 0.0227
v  9.3927 29.6722 0.0227
v  9.5108 0.7524 0.0376
v  9.5108 29.8051 0.0376
v  9.6233 0.6258 0.0816
v  9.6233 29.9318 0.0816
v  -8.6370 28.8215 -0.5678
v  -10.1792 0.0000 -0.5678
v  -10.1792 30.5575 -0.5678
v  10.1792 30.5575 -0.5678
v  8.6370 28.8215 -0.5678
v  8.6370 1.7361 -0.5678
v  10.1792 0.0000 -0.5678
v  -8.6370 1.7361 -0.5678
v  9.7251 0.5112 0.1525
v  9.7251 30.0463 0.1525
v  -8.9074 29.1259 0.3612
v  -8.8633 29.0763 0.4891
v  -9.6233 0.6258 0.0816
v  -9.7251 0.5112 0.1525
v  8.6370 0.5112 0.1525
v  8.6370 0.6258 0.0816
v  -10.0239 0.1748 0.4104
v  -10.1792 30.5575 0.4104
v  -10.1792 -0.0000 0.4104
v  10.1792 -0.0000 0.4104
v  8.6370 0.1748 0.4104
v  10.0239 0.1748 0.4104
v  10.0239 30.3828 0.4104
v  10.1792 30.5575 0.4104
v  -10.0239 30.3828 0.4104
v  9.8113 0.4141 0.2472
v  9.8113 30.1434 0.2472
v  -8.6370 1.7361 0.5678
v  -8.7615 28.9617 0.5678
v  -8.7615 1.5959 0.5678
v  8.6370 1.5959 0.5678
v  8.6370 1.7361 0.5678
v  8.6370 28.8215 0.5678
v  -8.6370 28.8215 0.5678
v  -8.7615 1.5959 0.4891
v  -8.7615 28.9617 0.4891
v  -9.8113 0.4141 0.2472
v  8.6370 0.4141 0.2472
v  -8.9074 1.4317 0.3612
v  -8.8633 1.4813 0.4891
v  -8.9741 1.3566 0.2472
v  -9.0604 1.2595 0.1525
v  -9.1622 29.4126 0.0816
v  -9.1622 1.1449 0.0816
v  -9.2747 29.5393 0.0376
v  -9.2747 1.0182 0.0376
v  -9.3927 29.6722 0.0227
v  -9.3927 0.8853 0.0227
v  -9.5108 29.8051 0.0376
v  -9.5108 0.7524 0.0376
v  -9.6233 29.9318 0.0816
v  -9.7251 30.0463 0.1525
v  -9.8113 30.1434 0.2472
v  -9.8781 30.2186 0.3612
v  -9.8781 0.3390 0.3612
v  -9.9221 30.2682 0.4891
v  -9.9221 0.2894 0.4891
v  9.8781 0.3390 0.3612
v  8.6370 0.3390 0.3612
v  -10.0239 0.1748 0.4891
v  -10.0239 30.3828 0.4891
v  8.6370 0.8853 0.0227
v  8.6370 1.0182 0.0376
v  9.8781 30.2186 0.3612
v  9.9221 30.2682 0.4891
v  10.0239 30.3828 0.4891
v  9.9221 0.2894 0.4891
v  10.0239 0.1748 0.4891
v  8.6370 1.1449 0.0816
v  8.6370 0.1748 0.4891
v  8.6370 0.2894 0.4891
v  8.6370 1.4317 0.3612
v  8.6370 1.4813 0.4891
v  8.6370 0.7524 0.0376
v  8.6370 1.5959 0.4891
v  8.6370 1.2595 0.1525
v  8.6370 1.3566 0.2472
# 101 vertices

vn 0.0000 0.5736 0.8191
vn 0.0000 0.7405 0.6721
vn 1.0000 0.0000 -0.0000
vn 0.9514 -0.0000 0.3080
vn 0.9073 -0.0000 0.4204
vn 0.7999 -0.0000 0.6001
vn 0.6442 -0.0000 0.7649
vn 0.4383 -0.0000 0.8988
vn 0.1909 -0.0000 0.9816
vn -0.0754 -0.0000 0.9972
vn -0.3304 -0.0000 0.9439
vn -0.5491 -0.0000 0.8358
vn 0.0000 0.0000 -1.0000
vn -0.7205 -0.0000 0.6935
vn 0.0000 0.8716 0.4902
vn 0.0000 0.9286 0.3711
vn 0.0000 0.4593 0.8883
vn 0.0000 0.6363 0.7714
vn 0.0000 0.6047 0.7965
vn 0.0000 0.4195 0.9077
vn 0.0000 -0.0000 1.0000
vn -0.8451 -0.0000 0.5346
vn 0.0000 1.0000 0.0000
vn -1.0000 0.0000 -0.0000
vn 0.0000 0.7834 0.6215
vn 0.0000 0.7617 0.6480
vn -0.9073 -0.0000 0.4204
vn -0.9514 -0.0000 0.3080
vn -0.7999 -0.0000 0.6001
vn -0.6442 -0.0000 0.7649
vn -0.4383 -0.0000 0.8988
vn -0.1909 -0.0000 0.9816
vn 0.0754 -0.0000 0.9972
vn 0.3304 -0.0000 0.9439
vn 0.5491 -0.0000 0.8358
vn 0.7205 -0.0000 0.6935
vn 0.8451 -0.0000 0.5346
vn 0.9290 -0.0000 0.3702
vn 0.0000 0.8949 0.4462
vn 0.0000 0.8830 0.4693
vn -0.0000 -0.1699 0.9855
vn 0.0000 0.0468 0.9989
vn -0.0000 -0.2148 0.9767
vn 0.0000 -1.0000 -0.0000
vn 0.0000 0.3802 0.9249
vn 0.0000 0.1699 0.9855
vn 0.0000 -0.0468 0.9989
vn 0.0000 -0.2598 0.9656
vn 0.0000 -0.4593 0.8883
vn 0.0000 -0.6363 0.7714
vn 0.0000 -0.7834 0.6215
vn 0.0000 -0.8949 0.4462
vn 0.0000 -0.9286 0.3711
vn -0.9290 -0.0000 0.3702
vn -0.0000 -0.3802 0.9249
vn -0.0000 -0.4195 0.9077
vn -0.0000 -0.8830 0.4693
vn -0.0000 -0.8716 0.4902
vn 0.0000 0.2598 0.9656
vn 0.0000 0.2148 0.9767
vn -0.0000 -0.5736 0.8191
vn -0.0000 -0.6047 0.7965
vn -0.0000 -0.7405 0.6721
vn -0.0000 -0.7617 0.6480
# 64 vertex normals

vt -0.3014 -0.3574 0.0000
vt -0.0175 -0.3574 0.0000
vt -0.0189 -0.3551 0.0000
vt -0.3000 -0.3551 0.0000
vt 0.0274 0.0189 0.0000
vt 0.0274 0.0176 0.0000
vt 0.4975 0.0176 0.0000
vt 0.4975 0.0189 0.0000
vt 0.0254 -0.0751 0.0000
vt 0.0246 -0.0774 0.0000
vt 0.5003 -0.0774 0.0000
vt 0.4995 -0.0751 0.0000
vt 0.0246 -0.1306 0.0000
vt 0.0233 -0.1327 0.0000
vt 0.5016 -0.1327 0.0000
vt 0.5003 -0.1306 0.0000
vt 0.0233 -0.1848 0.0000
vt 0.0216 -0.1869 0.0000
vt 0.5033 -0.1869 0.0000
vt 0.5016 -0.1848 0.0000
vt 0.5033 -0.2349 0.0000
vt 0.0216 -0.2349 0.0000
vt 0.0197 -0.2369 0.0000
vt 0.5053 -0.2369 0.0000
vt 0.5053 -0.2756 0.0000
vt 0.0197 -0.2756 0.0000
vt 0.0175 -0.2775 0.0000
vt 0.5074 -0.2775 0.0000
vt 0.5074 -0.3007 0.0000
vt 0.0175 -0.3007 0.0000
vt 0.0152 -0.3025 0.0000
vt 0.5097 -0.3025 0.0000
vt -0.5097 0.3052 0.0000
vt -0.0152 0.3052 0.0000
vt -0.0129 0.3070 0.0000
vt -0.5120 0.3070 0.0000
vt -0.5120 0.2887 0.0000
vt -0.0129 0.2887 0.0000
vt -0.0107 0.2906 0.0000
vt -0.5142 0.2906 0.0000
vt -0.0242 0.4951 0.0000
vt 0.0000 0.0000 0.0000
vt 0.0000 0.5249 0.0000
vt -0.3189 0.5249 0.0000
vt -0.2947 0.4951 0.0000
vt -0.2947 0.0298 0.0000
vt -0.3189 0.0000 0.0000
vt -0.0242 0.0298 0.0000
vt -0.5142 0.2556 0.0000
vt -0.0107 0.2556 0.0000
vt -0.0088 0.2575 0.0000
vt -0.5162 0.2575 0.0000
vt -0.2990 -0.1713 0.0000
vt -0.0199 -0.1713 0.0000
vt -0.0206 -0.1690 0.0000
vt -0.2983 -0.1690 0.0000
vt -0.0087 -0.0036 0.0000
vt -0.0071 -0.0013 0.0000
vt -0.2947 -0.0013 0.0000
vt -0.2947 -0.0036 0.0000
vt -0.3118 -0.0013 0.0000
vt -0.3102 -0.0036 0.0000
vt 0.0024 0.0030 0.0000
vt 0.3189 0.0000 0.0000
vt 0.2947 0.0030 0.0000
vt 0.3165 0.0030 0.0000
vt 0.3165 0.5219 0.0000
vt 0.3189 0.5249 0.0000
vt 0.0024 0.5219 0.0000
vt -0.3000 -0.2706 0.0000
vt -0.0189 -0.2706 0.0000
vt -0.0199 -0.2683 0.0000
vt -0.2990 -0.2683 0.0000
vt -0.0088 0.2119 0.0000
vt -0.0071 0.2140 0.0000
vt -0.5178 0.2140 0.0000
vt -0.5162 0.2119 0.0000
vt 0.0242 0.0298 0.0000
vt 0.0222 0.4975 0.0000
vt 0.0222 0.0274 0.0000
vt 0.2947 0.0274 0.0000
vt 0.2947 0.0298 0.0000
vt 0.2967 0.0274 0.0000
vt 0.2947 0.4951 0.0000
vt 0.2967 0.4975 0.0000
vt 0.0242 0.4951 0.0000
vt -0.2947 -0.0000 0.0000
vt -0.0242 -0.0000 0.0000
vt -0.0242 0.0189 0.0000
vt -0.2947 0.0189 0.0000
vt -0.0274 0.0176 0.0000
vt -0.0274 0.0189 0.0000
vt -0.4975 0.0189 0.0000
vt -0.4975 0.0176 0.0000
vt -0.0071 0.0019 0.0000
vt -0.0058 0.0042 0.0000
vt -0.2947 0.0042 0.0000
vt -0.2947 0.0019 0.0000
vt -0.3131 0.0042 0.0000
vt -0.3118 0.0019 0.0000
vt -0.5003 0.0209 0.0000
vt -0.0246 0.0209 0.0000
vt -0.0254 0.0231 0.0000
vt -0.4995 0.0231 0.0000
vt -0.5016 0.0210 0.0000
vt -0.0233 0.0210 0.0000
vt 0.0298 0.0189 0.0000
vt 0.0298 0.0000 0.0000
vt 0.4951 0.0000 0.0000
vt 0.4951 0.0189 0.0000
vt -0.5033 0.0205 0.0000
vt -0.0216 0.0205 0.0000
vt -0.0233 0.0226 0.0000
vt -0.5016 0.0226 0.0000
vt -0.5053 0.0192 0.0000
vt -0.0197 0.0192 0.0000
vt -0.5074 0.0170 0.0000
vt -0.0175 0.0170 0.0000
vt -0.5097 0.0135 0.0000
vt -0.0152 0.0135 0.0000
vt -0.0175 0.0154 0.0000
vt -0.5074 0.0154 0.0000
vt 0.5120 -0.0090 0.0000
vt 0.0129 -0.0090 0.0000
vt 0.0152 -0.0109 0.0000
vt 0.5097 -0.0109 0.0000
vt 0.5142 -0.0039 0.0000
vt 0.0107 -0.0039 0.0000
vt 0.0129 -0.0058 0.0000
vt 0.5120 -0.0058 0.0000
vt 0.5162 0.0014 0.0000
vt 0.0088 0.0014 0.0000
vt 0.0107 -0.0005 0.0000
vt 0.5142 -0.0005 0.0000
vt 0.5178 0.0066 0.0000
vt 0.0071 0.0066 0.0000
vt 0.0088 0.0045 0.0000
vt 0.5162 0.0045 0.0000
vt 0.5191 0.0113 0.0000
vt 0.0058 0.0113 0.0000
vt 0.0071 0.0091 0.0000
vt 0.5178 0.0091 0.0000
vt 0.5200 0.0155 0.0000
vt 0.0050 0.0155 0.0000
vt 0.0058 0.0133 0.0000
vt 0.5191 0.0133 0.0000
vt -0.2947 0.0072 0.0000
vt -0.0058 0.0072 0.0000
vt -0.0047 0.0095 0.0000
vt -0.3131 0.0072 0.0000
vt -0.3142 0.0095 0.0000
vt -0.2947 0.0095 0.0000
vt -0.0030 0.0163 0.0000
vt -0.0030 0.0176 0.0000
vt -0.5219 0.0176 0.0000
vt -0.5219 0.0163 0.0000
vt 0.0000 0.0163 0.0000
vt 0.5249 0.0000 0.0000
vt 0.5249 0.0163 0.0000
vt -0.2967 0.0176 0.0000
vt -0.0222 0.0176 0.0000
vt -0.0222 0.0189 0.0000
vt -0.2967 0.0189 0.0000
vt 0.0142 0.0185 0.0000
vt 0.0123 0.0162 0.0000
vt 0.2947 0.0162 0.0000
vt 0.2947 0.0185 0.0000
vt 0.3066 0.0162 0.0000
vt 0.3047 0.0185 0.0000
vt 0.3189 0.0163 0.0000
vt -0.3030 -0.4275 0.0000
vt -0.0159 -0.4275 0.0000
vt -0.0175 -0.4252 0.0000
vt -0.3014 -0.4252 0.0000
vt -0.3047 -0.4777 0.0000
vt -0.0142 -0.4777 0.0000
vt -0.0159 -0.4754 0.0000
vt -0.3030 -0.4754 0.0000
vt -0.3066 -0.5057 0.0000
vt -0.0123 -0.5057 0.0000
vt -0.0142 -0.5034 0.0000
vt -0.3047 -0.5034 0.0000
vt 0.3084 0.5101 0.0000
vt 0.0105 0.5101 0.0000
vt 0.0123 0.5078 0.0000
vt 0.3066 0.5078 0.0000
vt 0.3102 0.4908 0.0000
vt 0.0087 0.4908 0.0000
vt 0.0105 0.4885 0.0000
vt 0.3084 0.4885 0.0000
vt 0.3118 0.4486 0.0000
vt 0.0071 0.4486 0.0000
vt 0.0087 0.4463 0.0000
vt 0.3102 0.4463 0.0000
vt 0.3131 0.3855 0.0000
vt 0.0058 0.3855 0.0000
vt 0.0071 0.3832 0.0000
vt 0.3118 0.3832 0.0000
vt 0.0058 0.3022 0.0000
vt 0.3131 0.3022 0.0000
vt 0.3142 0.3045 0.0000
vt 0.0047 0.3045 0.0000
vt 0.0047 0.2070 0.0000
vt 0.3142 0.2070 0.0000
vt 0.3149 0.2093 0.0000
vt 0.0040 0.2093 0.0000
vt -0.3165 0.0163 0.0000
vt -0.3165 0.0176 0.0000
vt -0.0058 0.1115 0.0000
vt -0.0050 0.1137 0.0000
vt -0.5200 0.1137 0.0000
vt -0.5191 0.1115 0.0000
vt -0.0071 0.1629 0.0000
vt -0.0058 0.1650 0.0000
vt -0.5191 0.1650 0.0000
vt -0.5178 0.1629 0.0000
vt 0.0030 0.0176 0.0000
vt 0.0030 0.0163 0.0000
vt 0.5219 0.0163 0.0000
vt 0.5219 0.0176 0.0000
vt 0.0159 0.0221 0.0000
vt 0.0142 0.0198 0.0000
vt 0.2947 0.0198 0.0000
vt 0.2947 0.0221 0.0000
vt 0.3047 0.0198 0.0000
vt 0.3030 0.0221 0.0000
vt -0.0298 0.0000 0.0000
vt -0.0298 0.0189 0.0000
vt -0.4951 0.0189 0.0000
vt -0.4951 0.0000 0.0000
vt 0.3165 0.0163 0.0000
vt 0.3165 0.0176 0.0000
vt -0.2947 0.0122 0.0000
vt -0.0047 0.0122 0.0000
vt -0.0040 0.0145 0.0000
vt -0.3142 0.0122 0.0000
vt -0.3149 0.0145 0.0000
vt -0.2947 0.0145 0.0000
vt 0.2947 0.0235 0.0000
vt 0.2990 0.0235 0.0000
vt 0.2983 0.0258 0.0000
vt 0.0199 0.0235 0.0000
vt 0.0206 0.0258 0.0000
vt 0.2947 0.0258 0.0000
vt -0.0123 -0.0141 0.0000
vt -0.0105 -0.0118 0.0000
vt -0.2947 -0.0118 0.0000
vt -0.2947 -0.0141 0.0000
vt -0.3084 -0.0118 0.0000
vt -0.3066 -0.0141 0.0000
vt -0.5249 0.0163 0.0000
vt -0.5249 0.0000 0.0000
vt 0.2967 0.0176 0.0000
vt 0.2967 0.0189 0.0000
vt 0.0222 0.0176 0.0000
vt 0.0222 0.0189 0.0000
vt -0.0105 -0.0090 0.0000
vt -0.0087 -0.0067 0.0000
vt -0.2947 -0.0067 0.0000
vt -0.2947 -0.0090 0.0000
vt -0.3102 -0.0067 0.0000
vt -0.3084 -0.0090 0.0000
vt 0.0175 0.0247 0.0000
vt 0.2947 0.0247 0.0000
vt 0.3014 0.0247 0.0000
vt 0.0189 0.0263 0.0000
vt 0.3000 0.0263 0.0000
vt 0.0206 0.4995 0.0000
vt 0.2983 0.4995 0.0000
vt 0.3000 0.0243 0.0000
vt 0.0189 0.0243 0.0000
vt -0.3189 0.0163 0.0000
vt 0.0040 0.0050 0.0000
vt 0.2947 0.0050 0.0000
vt 0.3149 0.0050 0.0000
vt 0.3149 0.5200 0.0000
vt 0.0040 0.5200 0.0000
vt 0.0242 0.0000 0.0000
vt 0.2947 0.0000 0.0000
vt 0.0242 0.0189 0.0000
# 280 texture coords

g Group_001
usemtl Wood__Floor
s off
f 1/1/1 2/2/1 3/3/2 4/4/2 
f 5/5/3 6/6/3 7/7/3 8/8/3 
f 9/9/4 10/10/5 11/11/5 12/12/4 
f 10/13/5 13/14/6 4/15/6 11/16/5 
f 13/17/6 14/18/7 1/19/7 4/20/6 
f 1/21/7 14/22/7 15/23/8 16/24/8 
f 16/25/8 15/26/8 17/27/9 18/28/9 
f 18/29/9 17/30/9 19/31/10 20/32/10 
f 20/33/10 19/34/10 21/35/11 22/36/11 
f 22/37/11 21/38/11 23/39/12 24/40/12 
f 25/41/13 26/42/13 27/43/13 28/44/13 
f 29/45/13 25/41/13 28/44/13 30/46/13 
f 30/46/13 28/44/13 31/47/13 32/48/13 
f 32/48/13 31/47/13 26/42/13 25/41/13 
f 24/49/12 23/50/12 33/51/14 34/52/14 
f 11/53/15 35/54/15 36/55/16 12/56/16 
f 37/57/17 38/58/18 39/59/19 40/60/20 
f 40/60/20 39/59/19 33/61/18 23/62/17 
f 41/63/21 42/43/21 43/42/21 44/64/21 
f 45/65/21 41/63/21 44/64/21 46/66/21 
f 47/67/21 46/66/21 44/64/21 48/68/21 
f 49/69/21 47/67/21 48/68/21 42/43/21 
f 49/69/21 42/43/21 41/63/21 
f 4/70/2 3/71/2 35/72/15 11/73/15 
f 33/74/14 50/75/22 51/76/22 34/77/14 
f 52/78/21 53/79/21 54/80/21 55/81/21 
f 56/82/21 52/78/21 55/81/21 5/83/21 
f 57/84/21 56/82/21 5/83/21 8/85/21 
f 58/86/21 57/84/21 8/85/21 53/79/21 
f 58/86/21 53/79/21 52/78/21 
f 30/87/23 32/88/23 52/89/23 56/90/23 
f 59/91/24 54/92/24 53/93/24 60/94/24 
f 38/95/18 61/96/25 62/97/26 39/98/19 
f 39/98/19 62/97/26 50/99/25 33/100/18 
f 35/101/27 63/102/27 64/103/28 36/104/28 
f 3/105/29 65/106/29 63/103/27 35/104/27 
f 52/107/3 32/108/3 25/109/3 58/110/3 
f 2/111/30 66/112/30 65/113/29 3/114/29 
f 67/115/31 68/116/31 66/112/30 2/111/30 
f 69/117/32 70/118/32 68/116/31 67/115/31 
f 71/119/33 72/120/33 70/121/32 69/122/32 
f 73/123/34 74/124/34 72/125/33 71/126/33 
f 75/127/35 37/128/35 74/129/34 73/130/34 
f 76/131/36 38/132/36 37/133/35 75/134/35 
f 77/135/37 61/136/37 38/137/36 76/138/36 
f 78/139/38 79/140/38 61/141/37 77/142/37 
f 80/143/4 81/144/4 79/145/38 78/146/38 
f 62/147/26 61/148/25 79/149/39 50/150/25 
f 82/151/39 50/150/25 79/149/39 83/152/40 
f 41/153/24 84/154/24 85/155/24 49/156/24 
f 44/157/3 31/42/3 28/158/3 48/159/3 
f 7/160/23 60/161/23 53/162/23 8/163/23 
f 70/164/41 72/165/42 86/166/21 87/167/43 
f 87/167/43 86/166/21 19/168/42 17/169/41 
f 26/42/44 31/64/44 44/170/44 43/157/44 
f 16/171/45 67/172/45 2/173/1 1/174/1 
f 18/175/46 69/176/46 67/177/45 16/178/45 
f 20/179/47 71/180/47 69/181/46 18/182/46 
f 22/183/48 73/184/48 71/185/47 20/186/47 
f 24/187/49 75/188/49 73/189/48 22/190/48 
f 34/191/50 76/192/50 75/193/49 24/194/49 
f 51/195/51 77/196/51 76/197/50 34/198/50 
f 77/199/51 51/200/51 88/201/52 78/202/52 
f 78/203/52 88/204/52 89/205/53 80/206/53 
f 47/207/23 49/153/23 85/154/23 90/208/23 
f 82/209/54 91/210/28 89/211/28 88/212/54 
f 50/213/22 82/214/54 88/215/54 51/216/22 
f 92/217/3 46/218/3 47/219/3 90/220/3 
f 68/221/55 70/222/41 87/223/43 93/224/56 
f 93/224/56 87/223/43 17/225/41 15/226/55 
f 30/227/24 56/228/24 57/229/24 29/230/24 
f 45/166/44 46/231/44 92/232/44 41/218/44 
f 84/217/44 41/218/44 92/232/44 94/167/44 
f 83/233/40 79/234/39 81/235/16 82/236/39 
f 91/237/16 82/236/39 81/235/16 95/238/16 
f 96/239/57 10/240/58 9/241/53 63/242/58 
f 64/243/53 63/242/58 9/241/53 97/244/53 
f 72/245/42 74/246/59 98/247/60 86/248/21 
f 86/248/21 98/247/60 21/249/59 19/250/42 
f 26/42/24 43/157/24 42/251/24 27/252/24 
f 99/167/44 6/253/44 5/254/44 59/255/44 
f 54/256/44 59/255/44 5/254/44 55/167/44 
f 74/257/59 37/258/17 40/259/20 98/260/60 
f 98/260/60 40/259/20 23/261/17 21/262/59 
f 66/263/61 68/221/55 93/224/56 100/264/62 
f 100/264/62 93/224/56 15/226/55 14/265/61 
f 65/266/63 66/263/61 100/239/62 101/244/64 
f 101/244/64 100/239/62 14/265/61 13/267/63 
f 59/80/21 36/268/21 64/243/21 97/244/21 
f 99/81/21 59/80/21 97/244/21 9/241/21 
f 6/83/21 99/81/21 9/241/21 7/85/21 
f 7/85/21 9/241/21 12/269/21 60/79/21 
f 60/79/21 12/269/21 36/268/21 59/80/21 
f 101/239/64 13/270/63 10/241/58 65/271/63 
f 63/243/58 65/271/63 10/241/58 96/81/57 
f 28/47/23 27/42/23 42/157/23 48/272/23 
f 81/273/21 85/69/21 84/63/21 94/65/21 
f 95/274/21 81/273/21 94/65/21 92/66/21 
f 91/275/21 95/274/21 92/66/21 89/276/21 
f 89/276/21 92/66/21 90/67/21 80/277/21 
f 80/277/21 90/67/21 85/69/21 81/273/21 
f 25/278/44 29/279/44 57/167/44 58/280/44 
# 100 polygons - 2 triangles

